<?xml version="1.0" standalone="no"?>
<!DOCTYPE svg PUBLIC "-//W3C//DTD SVG 20010904//EN"
 "http://www.w3.org/TR/2001/REC-SVG-20010904/DTD/svg10.dtd">
<svg version="1.0" xmlns="http://www.w3.org/2000/svg"
 width="428.000000pt" height="448.000000pt" viewBox="0 0 428.000000 448.000000"
 preserveAspectRatio="xMidYMid meet">

<g transform="translate(0.000000,448.000000) scale(0.100000,-0.100000)"
fill="#000000" stroke="none">
<path d="M2079 4163 c-115 -141 -196 -282 -224 -389 -8 -32 -15 -96 -15 -142
0 -72 -12 -123 -35 -150 -1 -2 -36 22 -76 53 -82 61 -179 106 -289 132 -58 14
-73 15 -79 4 -15 -23 -36 -232 -36 -348 1 -62 -2 -113 -4 -113 -3 0 -62 56
-131 125 l-126 125 -39 -40 -39 -40 35 -37 c18 -20 90 -95 159 -166 102 -105
125 -134 123 -155 -1 -15 -2 -85 -2 -155 l0 -129 -31 22 c-67 48 -131 61 -348
71 -113 5 -207 7 -210 5 -5 -6 34 -162 59 -235 l20 -56 -246 -243 c-135 -134
-245 -248 -245 -254 0 -6 163 -175 363 -375 199 -200 363 -369 365 -376 1 -7
-40 -55 -93 -107 -52 -52 -95 -99 -95 -105 0 -6 17 -28 38 -48 l38 -37 99 100
c55 55 102 100 106 100 8 0 845 -847 1005 -1017 9 -9 75 53 276 260 146 150
376 385 512 522 l246 250 106 -109 106 -109 38 44 39 44 -100 100 c-54 55 -99
105 -99 110 0 5 168 177 372 383 l373 373 -231 227 c-126 125 -240 239 -252
253 l-22 25 20 60 c11 32 27 88 36 124 8 36 17 73 20 83 5 15 -3 17 -68 17
-40 0 -129 -5 -197 -10 -69 -5 -126 -8 -128 -6 -2 1 49 54 113 117 63 63 120
122 126 133 8 15 4 25 -26 55 l-36 36 -135 -135 -135 -134 35 -36 c40 -41 43
-50 16 -50 -24 0 -88 -27 -122 -51 l-27 -19 -4 153 -5 152 159 161 c87 88 158
164 158 169 0 5 -17 26 -37 47 l-37 38 -133 -132 -133 -133 0 130 c0 119 -21
340 -34 352 -10 11 -182 -38 -251 -70 -39 -19 -96 -55 -128 -81 -33 -26 -60
-46 -62 -44 -22 25 -35 78 -35 141 0 86 -27 203 -66 279 -36 71 -132 210 -191
276 l-48 54 -56 -69z m155 -268 c77 -135 95 -282 48 -388 -17 -38 -130 -186
-142 -186 -15 1 -117 132 -139 179 -23 48 -26 68 -26 155 0 118 18 168 105
304 l54 83 27 -33 c16 -19 49 -70 73 -114z m-688 -391 c191 -115 241 -183 251
-345 l6 -89 -136 0 -136 0 -32 66 c-27 54 -33 81 -37 149 -5 94 6 255 17 255
4 0 34 -16 67 -36z m1270 -110 c6 -116 5 -139 -14 -201 -12 -38 -33 -82 -46
-96 -25 -27 -27 -27 -152 -27 l-127 0 5 93 c6 108 31 166 101 235 49 48 208
145 219 134 4 -4 11 -66 14 -138z m-817 -79 c49 -47 99 -106 112 -130 13 -25
26 -45 29 -45 3 0 16 21 30 47 25 47 183 213 202 213 12 0 2 -224 -13 -281
-12 -48 -42 -85 -87 -108 -21 -11 -58 -37 -83 -60 l-46 -40 -29 30 c-16 17
-60 49 -98 71 -89 52 -103 82 -116 250 -5 68 -10 126 -10 131 0 20 29 -1 109
-78z m846 -642 c-3 -12 -25 -32 -51 -47 -26 -14 -47 -26 -48 -26 -2 0 1 24 5
53 4 28 8 101 8 160 l1 108 43 42 42 42 3 -155 c1 -85 0 -165 -3 -177z m-1323
86 l3 -156 -46 29 -46 28 -6 82 c-9 105 -9 206 0 236 6 23 7 23 49 -20 l42
-43 4 -156z m329 191 c109 -21 222 -103 266 -194 9 -20 19 -36 22 -36 3 0 17
20 30 46 34 64 119 138 189 164 40 16 87 23 162 27 l105 4 -85 -81 c-109 -104
-184 -164 -262 -209 -54 -31 -112 -90 -132 -133 -4 -10 -7 -10 -12 -1 -23 49
-75 99 -163 157 -95 62 -301 238 -301 257 0 12 115 11 181 -1z m-123 -219 c31
-26 99 -76 151 -111 120 -80 167 -130 216 -229 21 -45 42 -81 46 -81 3 0 18
28 33 63 41 98 100 165 214 241 55 37 128 90 162 117 34 28 65 48 68 44 9 -9
-15 -224 -32 -280 -8 -27 -29 -71 -45 -96 -26 -42 -37 -49 -98 -69 -135 -44
-240 -128 -279 -223 -10 -26 -21 -47 -24 -47 -3 0 -14 21 -24 47 -39 95 -153
186 -277 223 -80 24 -107 53 -139 145 -27 79 -53 305 -34 305 3 0 31 -22 62
-49z m-657 -35 c118 -25 210 -89 256 -180 22 -42 27 -65 27 -130 l1 -80 -115
3 c-213 5 -274 60 -341 303 l-26 98 66 0 c36 0 96 -7 132 -14z m2325 -3 c-2
-10 -7 -34 -11 -53 -13 -71 -58 -188 -90 -232 -53 -73 -115 -98 -260 -104
l-117 -5 4 88 c5 101 25 150 85 208 74 72 190 113 326 114 61 1 68 -1 63 -16z
m-1877 -219 c52 -59 106 -167 121 -241 8 -35 10 -87 5 -140 l-7 -84 -156 3
c-143 3 -162 5 -207 27 -55 27 -170 135 -160 150 3 6 12 8 19 5 8 -3 75 0 150
6 124 9 138 9 163 -7 l26 -17 -6 172 c-3 95 -2 172 3 172 5 0 27 -21 49 -46z
m1288 -35 c-4 -45 -4 -121 0 -170 6 -87 6 -87 28 -73 18 11 44 12 154 4 74 -6
142 -8 152 -5 69 22 -67 -120 -153 -160 -49 -23 -64 -25 -205 -25 l-153 0 0
110 c0 118 19 197 63 270 21 35 105 130 115 130 3 0 2 -37 -1 -81z m826 -207
l178 -177 -745 -750 -745 -750 0 130 -1 130 635 635 635 635 -76 75 c-41 41
-88 91 -104 110 l-28 36 31 51 c18 29 34 52 37 53 3 0 85 -80 183 -178z
m-2765 116 l34 -51 -102 -102 c-56 -57 -101 -107 -99 -113 2 -6 287 -295 633
-642 l628 -630 -5 -103 c-4 -56 -7 -111 -7 -122 0 -20 -229 206 -1148 1135
l-331 335 172 172 c94 95 176 173 182 173 5 0 25 -23 43 -52z m997 -154 c46
-30 98 -72 116 -92 69 -79 105 -205 93 -334 l-6 -66 -149 131 -149 132 0 75
c0 41 -3 105 -7 143 -4 48 -3 67 6 67 6 0 49 -25 96 -56z m602 -259 c-24 -22
-91 -84 -150 -138 l-106 -97 -7 57 c-10 80 8 202 39 265 35 72 90 126 183 181
l79 46 3 -137 3 -137 -44 -40z m943 160 c0 -5 -245 -255 -545 -555 l-545 -545
4 58 c3 31 8 62 12 69 4 7 3 8 -4 4 -8 -5 -12 5 -12 33 0 38 7 47 140 185 130
133 146 146 202 165 87 29 158 88 225 184 32 46 117 141 194 217 75 74 162
168 194 208 l57 72 39 -42 c21 -24 38 -47 39 -53z m-2377 -15 c43 -55 101
-117 129 -138 74 -54 134 -118 185 -197 72 -110 155 -186 250 -226 75 -32 88
-43 221 -180 l142 -146 -7 -92 c-5 -74 -8 -89 -19 -80 -8 6 -11 15 -8 20 3 5
0 8 -8 7 -7 -2 -12 4 -10 12 2 8 0 11 -4 7 -5 -4 -241 225 -526 510 l-518 518
42 42 c23 24 45 43 48 43 3 -1 40 -46 83 -100z m825 -319 l142 -138 -112 -7
c-222 -13 -304 22 -419 176 -32 44 -59 84 -59 88 0 10 67 16 210 18 l95 1 143
-138z m1010 124 c7 -6 -105 -154 -143 -188 -75 -70 -158 -91 -329 -81 l-118 7
138 139 139 140 154 -6 c85 -4 157 -8 159 -11z m-751 -349 l18 -24 28 26 27
26 0 -585 0 -586 -24 -22 c-23 -22 -25 -22 -49 -6 -14 9 -28 22 -31 30 -10 26
-7 1165 3 1165 6 0 18 -11 28 -24z m-167 -96 c0 -27 -1 -50 -3 -50 -1 0 -25
23 -52 50 l-49 50 52 0 52 0 0 -50z m470 47 c0 -2 -20 -23 -45 -47 l-45 -44 0
47 0 47 45 0 c25 0 45 -1 45 -3z"/>
<path d="M1683 3829 c-18 -12 -33 -26 -33 -32 0 -7 19 -33 43 -59 l42 -47 42
25 42 25 -42 55 c-23 29 -46 54 -52 54 -5 0 -25 -10 -42 -21z"/>
<path d="M2506 3799 c-40 -54 -40 -61 12 -91 l30 -18 41 55 c22 30 41 56 41
59 0 6 -66 46 -77 46 -5 0 -26 -23 -47 -51z"/>
<path d="M892 3127 c-18 -18 -32 -37 -32 -42 0 -12 251 -255 264 -255 6 0 25
14 43 32 l33 32 -132 133 c-73 73 -135 133 -138 133 -3 0 -20 -15 -38 -33z"/>
</g>
</svg>
